<svg xmlns="http://www.w3.org/2000/svg" viewBox="0 0 24 24" width="24" height="24" fill="none" stroke="currentColor" stroke-width="2" stroke-linecap="round" stroke-linejoin="round">
  <!-- Topp- og bunnlinje -->
  <line x1="5" y1="2" x2="19" y2="2" />
  <line x1="5" y1="22" x2="19" y2="22" />
  
  <!-- Timeglassets form -->
  <path d="M6 2v4a6 6 0 0 0 3 5.2L11 12l-2 0.8A6 6 0 0 0 6 18v4" />
  <path d="M18 2v4a6 6 0 0 1-3 5.2L13 12l2 0.8a6 6 0 0 1 3 5.2v4" />

  <!-- Sand / detaljer i midten -->
  <path d="M8 6h8" opacity="0.4" />
  <path d="M7 19h10" />
</svg>
